<!DOCTYPE svg PUBLIC "-//W3C//DTD SVG 1.1//EN" "http://www.w3.org/Graphics/SVG/1.1/DTD/svg11.dtd">
<!-- Uploaded to: SVG Repo, www.svgrepo.com, Transformed by: SVG Repo Mixer Tools -->
<svg fill="#3b3835" height="800px" width="800px" version="1.1" id="Layer_1" xmlns="http://www.w3.org/2000/svg" xmlns:xlink="http://www.w3.org/1999/xlink" viewBox="0 0 512 512" xml:space="preserve" stroke="#3b3835">
<g id="SVGRepo_bgCarrier" stroke-width="0"/>
<g id="SVGRepo_tracerCarrier" stroke-linecap="round" stroke-linejoin="round"/>
<g id="SVGRepo_iconCarrier"> <g> <g> <path d="M504.5,41.717c-4.685-3.088-10.608-3.608-15.772-1.414l-54.641,23.418V247.93l54.642,23.417 c2.108,0.903,4.347,1.348,6.576,1.348c3.218,0,6.423-0.935,9.196-2.76c4.685-3.086,7.5-8.326,7.5-13.935V55.652 C512,50.044,509.185,44.804,504.5,41.717z"/> </g> </g> <g> <g> <path d="M150.261,105.739c-27.619,0-50.087,22.468-50.087,50.087c0,27.619,22.468,50.087,50.087,50.087 s50.087-22.468,50.087-50.087C200.348,128.207,177.88,105.739,150.261,105.739z"/> </g> </g> <g> <g> <path d="M189.098,10.652c-12.62-3.369-25.686-5.087-38.837-5.087C67.403,5.565,0,72.968,0,155.826s67.403,150.261,150.261,150.261 c13.152,0,26.218-1.717,38.837-5.087l211.597-56.637V67.289L189.098,10.652z M150.261,239.304 c-46.032,0-83.478-37.446-83.478-83.478c0-46.032,37.446-83.478,83.478-83.478c46.032,0,83.478,37.446,83.478,83.478 C233.739,201.858,196.293,239.304,150.261,239.304z"/> </g> </g> <g> <g> <path d="M297.185,307.999l-0.417-1.251l-32.312,8.649l1.055,3.167c1.608,4.837,0.794,10.184-2.196,14.326 c-2.967,4.12-7.782,6.588-12.88,6.588h-13.161l-5.142-15.427l-34.403,9.21c-15.468,4.129-31.436,6.216-47.468,6.216 c-19.765,0-38.772-3.227-56.627-9.032l44.692,133.989c10.195,25.511,34.543,42,62.022,42c36.826,0,66.783-29.956,66.783-66.783 c0-8.587-1.608-16.924-4.424-23.869l-14.303-42.913h2.031c15.804,0,30.75-7.652,39.978-20.468 C299.652,339.586,302.185,322.989,297.185,307.999z"/> </g> </g> </g>
</svg>