<!DOCTYPE svg PUBLIC "-//W3C//DTD SVG 1.1//EN" "http://www.w3.org/Graphics/SVG/1.1/DTD/svg11.dtd">
<!-- Uploaded to: SVG Repo, www.svgrepo.com, Transformed by: SVG Repo Mixer Tools -->
<svg fill="#3b3835" height="800px" width="800px" version="1.1" id="Layer_1" xmlns="http://www.w3.org/2000/svg" xmlns:xlink="http://www.w3.org/1999/xlink" viewBox="0 0 512.001 512.001" xml:space="preserve">
<g id="SVGRepo_bgCarrier" stroke-width="0"/>
<g id="SVGRepo_tracerCarrier" stroke-linecap="round" stroke-linejoin="round"/>
<g id="SVGRepo_iconCarrier"> <g> <g> <path d="M372.87,345.045h-50.087v-83.478c0-5.183-2.407-10.073-6.516-13.234l-32.884-25.295l77.406-59.542 c4.108-3.161,6.516-8.049,6.516-13.234c0-9.493,0-86.461,0-100.174C367.305,22.469,344.836,0,317.218,0H194.783 c-27.618,0-50.087,22.469-50.087,50.087c0,12.589,0,89.885,0,100.174c0,5.183,2.407,10.073,6.516,13.234l77.406,59.542 l-32.884,25.295c-4.108,3.161-6.516,8.051-6.516,13.234v83.478h-50.087c-27.618,0-50.087,22.469-50.087,50.087v66.783 c0,27.618,22.469,50.087,50.087,50.087h66.783c9.22,0,16.696-7.475,16.696-16.696c0-4.119,0-219.723,0-225.518l33.391-25.686 l33.391,25.686c0,6.243,0,219.723,0,225.518c0,9.22,7.475,16.696,16.696,16.696h66.783c27.618,0,50.087-22.469,50.087-50.087 v-66.783C422.957,367.514,400.488,345.045,372.87,345.045z M189.218,478.61h-50.087c-9.206,0-16.696-7.49-16.696-16.696v-66.783 c0-9.206,7.49-16.696,16.696-16.696h50.087V478.61z M178.088,142.041v-41.866h155.826v41.866l-77.913,59.933L178.088,142.041z M389.566,461.914c0,9.206-7.49,16.696-16.696,16.696h-50.087V378.436h50.087c9.206,0,16.696,7.49,16.696,16.696V461.914z"/> </g> </g> </g>
</svg>