<!DOCTYPE svg PUBLIC "-//W3C//DTD SVG 1.1//EN" "http://www.w3.org/Graphics/SVG/1.1/DTD/svg11.dtd">
<!-- Uploaded to: SVG Repo, www.svgrepo.com, Transformed by: SVG Repo Mixer Tools -->
<svg fill="#3b3835" height="800px" width="800px" version="1.1" id="Layer_1" xmlns="http://www.w3.org/2000/svg" xmlns:xlink="http://www.w3.org/1999/xlink" viewBox="0 0 512 512" xml:space="preserve">
<g id="SVGRepo_bgCarrier" stroke-width="0"/>
<g id="SVGRepo_tracerCarrier" stroke-linecap="round" stroke-linejoin="round"/>
<g id="SVGRepo_iconCarrier"> <g> <g> <path d="M345.116,261.87c-13.849,0.001-26.866,5.389-36.665,15.189c-16.786,16.786-34.439,25.303-52.45,25.303 c-18.011,0-35.664-8.517-52.45-25.314c-9.799-9.788-22.817-15.177-36.666-15.177H0.174 c48.237,57.952,151.384,138.247,255.827,138.247s207.59-80.295,255.827-138.247H345.116z"/> </g> </g> <g> <g> <path d="M363.32,112.531c-37.274-4.534-62.891,15.683-81.645,30.421c-9.968,7.831-19.385,15.234-25.674,15.234 c-6.289,0-15.706-7.403-25.674-15.234c-18.754-14.738-44.373-34.944-81.645-30.421C105.636,117.728,58.244,154.335,0,227.31 h166.884c23.075,0,44.766,8.978,61.102,25.291c20.161,20.184,35.867,20.173,56.028,0.011 c16.336-16.325,38.027-25.303,61.102-25.303H512C453.756,154.335,406.364,117.728,363.32,112.531z"/> </g> </g> </g>
</svg>