<!DOCTYPE svg PUBLIC "-//W3C//DTD SVG 1.1//EN" "http://www.w3.org/Graphics/SVG/1.1/DTD/svg11.dtd">
<!-- Uploaded to: SVG Repo, www.svgrepo.com, Transformed by: SVG Repo Mixer Tools -->
<svg fill="#44413b" height="800px" width="800px" version="1.1" id="Layer_1" xmlns="http://www.w3.org/2000/svg" xmlns:xlink="http://www.w3.org/1999/xlink" viewBox="0 0 511.999 511.999" xml:space="preserve" stroke="#44413b">
<g id="SVGRepo_bgCarrier" stroke-width="0"/>
<g id="SVGRepo_tracerCarrier" stroke-linecap="round" stroke-linejoin="round"/>
<g id="SVGRepo_iconCarrier"> <g> <g> <path d="M432.869,427.411l-17.386-64.902c-9.601-35.781-46.531-57.078-82.289-47.504c-0.011,0-0.011,0-0.011,0 c-11.812,3.166-22.032,9.322-30.099,17.419L217.398,12.668c-2.405-8.967-11.57-14.271-20.581-11.875 c-8.956,2.401-14.271,11.608-11.875,20.569l53.665,200.262l-29.691,110.801c-8.067-8.097-18.287-14.254-30.098-17.419 c0,0,0,0-0.011,0c-35.726-9.601-72.699,11.723-82.289,47.509l-17.387,64.896c-9.617,35.865,11.636,72.672,47.525,82.289 c35.608,9.574,72.654-11.605,82.279-47.509l17.387-64.896c0.08-0.297,0.139-0.592,0.214-0.889 c0.047-0.157,0.104-0.308,0.147-0.467L256,286.535l29.317,109.403c0.043,0.159,0.1,0.31,0.147,0.467 c0.075,0.297,0.135,0.592,0.214,0.889l17.387,64.902c9.571,35.698,46.403,57.1,82.289,47.504 C421.226,500.081,442.487,463.28,432.869,427.411z M193.864,388.601l-17.386,64.891c-4.789,17.891-23.227,28.541-41.129,23.763 c-17.943-4.808-28.583-23.205-23.763-41.15l17.387-64.891c4.764-17.801,23.131-28.573,41.15-23.763 C188.015,352.252,198.665,370.71,193.864,388.601z M376.662,477.254c-17.967,4.789-36.349-5.878-41.139-23.757L318.136,388.6 c-4.801-17.891,5.851-36.349,23.741-41.15c17.923-4.762,36.361,5.861,41.15,23.757l17.387,64.896 C405.239,454.068,394.572,472.449,376.662,477.254z"/> </g> </g> <g> <g> <path d="M315.238,0.578c-8.978-2.405-18.174,2.909-20.581,11.875l-21.269,79.372l17.393,64.907l36.333-135.585 C329.509,12.186,324.194,2.978,315.238,0.578z"/> </g> </g> </g>
</svg>